{"accessors":[{"name":"Logo_Círculo.007-Mesh_positions","componentType":5126,"count":209,"min":[-0.14425699412822723,-0.12651599943637848,-4.875566005706787],"max":[0.14425699412822723,0.15418000519275665,-4.749415874481201],"type":"VEC3","bufferView":0,"byteOffset":0},{"name":"Logo_Círculo.007-Mesh_normals","componentType":5126,"count":209,"min":[-0.9307000041007996,-0.9783999919891357,-0.9987999796867371],"max":[0.9307000041007996,0.8449000120162964,-0.09220000356435776],"type":"VEC3","bufferView":0,"byteOffset":307008},{"name":"Logo_Círculo.007-Mesh_0_indices","componentType":5123,"count":336,"min":[0],"max":[208],"type":"SCALAR","bufferView":1,"byteOffset":0},{"name":"Plano.002_Plano.019-Mesh_positions","componentType":5126,"count":108,"min":[-1.2602369785308838,-0.6054739952087402,4.343297004699707],"max":[1.2602369785308838,-0.4923039972782135,4.816360950469971],"type":"VEC3","bufferView":0,"byteOffset":2508},{"name":"Plano.002_Plano.019-Mesh_normals","componentType":5126,"count":108,"min":[-1,-1,-1],"max":[1,1,1],"type":"VEC3","bufferView":0,"byteOffset":309516},{"name":"Plano.002_Plano.019-Mesh_0_indices","componentType":5123,"count":264,"min":[0],"max":[107],"type":"SCALAR","bufferView":1,"byteOffset":672},{"name":"Carroceria_2_Plano.003-Mesh_positions","componentType":5126,"count":326,"min":[-1.6447429656982422,-0.3919849991798401,4.3662309646606445],"max":[1.6447429656982422,0.014499000273644924,4.916254997253418],"type":"VEC3","bufferView":0,"byteOffset":3804},{"name":"Carroceria_2_Plano.003-Mesh_normals","componentType":5126,"count":326,"min":[-1,-1,0],"max":[1,1,0.9983999729156494],"type":"VEC3","bufferView":0,"byteOffset":310812},{"name":"Carroceria_2_Plano.003-Mesh_0_indices","componentType":5123,"count":600,"min":[0],"max":[325],"type":"SCALAR","bufferView":1,"byteOffset":1200},{"name":"Rejilla_Plano.002-Mesh_positions","componentType":5126,"count":1120,"min":[-1.2045259475708008,-0.4026789963245392,4.481531143188477],"max":[1.2045259475708008,0.024779999628663063,4.862605094909668],"type":"VEC3","bufferView":0,"byteOffset":7716},{"name":"Rejilla_Plano.002-Mesh_normals","componentType":5126,"count":1120,"min":[-0.2102999985218048,-1,0],"max":[0.2102999985218048,1,0.9775999784469604],"type":"VEC3","bufferView":0,"byteOffset":314724},{"name":"Rejilla_Plano.002-Mesh_0_indices","componentType":5123,"count":3840,"min":[0],"max":[1119],"type":"SCALAR","bufferView":1,"byteOffset":2400},{"name":"Carroceria_Plano-Mesh_positions","componentType":5126,"count":4374,"min":[-1.9593000411987305,-1.014704942703247,-4.902875900268555],"max":[1.9593000411987305,1.3126029968261719,4.945377826690674],"type":"VEC3","bufferView":0,"byteOffset":21156},{"name":"Carroceria_Plano-Mesh_normals","componentType":5126,"count":4374,"min":[-1,-1,-1],"max":[1,1,1],"type":"VEC3","bufferView":0,"byteOffset":328164},{"name":"Carroceria_Plano-Mesh_0_indices","componentType":5123,"count":6492,"min":[0],"max":[3873],"type":"SCALAR","bufferView":1,"byteOffset":10080},{"name":"Carroceria_Plano-Mesh_1_indices","componentType":5123,"count":990,"min":[3874],"max":[4373],"type":"SCALAR","bufferView":1,"byteOffset":23064},{"name":"Cubo-Mesh_positions","componentType":5126,"count":864,"min":[-0.9711229801177979,0.3885590136051178,1.7458829879760742],"max":[0.9711229801177979,0.5885589718818665,1.9840420484542847],"type":"VEC3","bufferView":0,"byteOffset":73644},{"name":"Cubo-Mesh_normals","componentType":5126,"count":864,"min":[-1,-1,-1],"max":[1,1,1],"type":"VEC3","bufferView":0,"byteOffset":380652},{"name":"Cubo-Mesh_0_indices","componentType":5123,"count":1560,"min":[0],"max":[863],"type":"SCALAR","bufferView":1,"byteOffset":25044},{"name":"Luz_Tr_Plano.021-Mesh_positions","componentType":5126,"count":944,"min":[-1.4799740314483643,-0.13151699304580688,-4.855708122253418],"max":[1.4799740314483643,0.10647500306367874,-4.739327907562256],"type":"VEC3","bufferView":0,"byteOffset":84012},{"name":"Luz_Tr_Plano.021-Mesh_normals","componentType":5126,"count":944,"min":[-1,-1,-0.9897000193595886],"max":[1,1,0.250900000333786],"type":"VEC3","bufferView":0,"byteOffset":391020},{"name":"Luz_Tr_Plano.021-Mesh_0_indices","componentType":5123,"count":624,"min":[0],"max":[335],"type":"SCALAR","bufferView":1,"byteOffset":28164},{"name":"Luz_Tr_Plano.021-Mesh_1_indices","componentType":5123,"count":1488,"min":[336],"max":[943],"type":"SCALAR","bufferView":1,"byteOffset":29412},{"name":"Luz_Ad_Plano.020-Mesh_positions","componentType":5126,"count":728,"min":[-1.5150690078735352,-0.6978800296783447,4.362324237823486],"max":[1.5150690078735352,-0.569329023361206,4.556111812591553],"type":"VEC3","bufferView":0,"byteOffset":95340},{"name":"Luz_Ad_Plano.020-Mesh_normals","componentType":5126,"count":728,"min":[-1,-1,0],"max":[1,1,0.986299991607666],"type":"VEC3","bufferView":0,"byteOffset":402348},{"name":"Luz_Ad_Plano.020-Mesh_0_indices","componentType":5123,"count":1296,"min":[128],"max":[727],"type":"SCALAR","bufferView":1,"byteOffset":32388},{"name":"Luz_Ad_Plano.020-Mesh_1_indices","componentType":5123,"count":192,"min":[0],"max":[127],"type":"SCALAR","bufferView":1,"byteOffset":34980},{"name":"Rin_2_Tr_Círculo.006-Mesh_positions","componentType":5126,"count":578,"min":[-1.9311950206756592,-0.9311500191688538,-2.8320000171661377],"max":[1.9311950206756592,-0.3935920000076294,-2.2944419384002686],"type":"VEC3","bufferView":0,"byteOffset":104076},{"name":"Rin_2_Tr_Círculo.006-Mesh_normals","componentType":5126,"count":578,"min":[-1,-0.9807999730110168,-0.9807999730110168],"max":[1,0.9807999730110168,0.9807999730110168],"type":"VEC3","bufferView":0,"byteOffset":411084},{"name":"Rin_2_Tr_Círculo.006-Mesh_0_indices","componentType":5123,"count":1248,"min":[0],"max":[577],"type":"SCALAR","bufferView":1,"byteOffset":35364},{"name":"Rin_1_Tr_Plano.018-Mesh_positions","componentType":5126,"count":4092,"min":[-1.9359740018844604,-1.1745970249176025,-3.0734119415283203],"max":[1.935973048210144,-0.15127800405025482,-2.053030014038086],"type":"VEC3","bufferView":0,"byteOffset":111012},{"name":"Rin_1_Tr_Plano.018-Mesh_normals","componentType":5126,"count":4092,"min":[-1,-0.998199999332428,-1],"max":[1,0.9952999949455261,1],"type":"VEC3","bufferView":0,"byteOffset":418020},{"name":"Rin_1_Tr_Plano.018-Mesh_0_indices","componentType":5123,"count":7320,"min":[0],"max":[4091],"type":"SCALAR","bufferView":1,"byteOffset":37860},{"name":"Ruedas_Tr_Círculo.005-Mesh_positions","componentType":5126,"count":2624,"min":[-1.8903709650039673,-1.3697019815444946,-3.270551919937134],"max":[1.8903709650039673,0.04495999962091446,-1.8558900356292725],"type":"VEC3","bufferView":0,"byteOffset":160116},{"name":"Ruedas_Tr_Círculo.005-Mesh_normals","componentType":5126,"count":2624,"min":[-1,-0.9807999730110168,-0.9807999730110168],"max":[1,0.9807999730110168,0.9807999730110168],"type":"VEC3","bufferView":0,"byteOffset":467124},{"name":"Ruedas_Tr_Círculo.005-Mesh_0_indices","componentType":5123,"count":4224,"min":[0],"max":[2623],"type":"SCALAR","bufferView":1,"byteOffset":52500},{"name":"Ruedas_Ad_Círculo.004-Mesh_positions","componentType":5126,"count":2624,"min":[-1.876459002494812,-1.335805058479309,2.584218978881836],"max":[1.876459002494812,-0.08374600112438202,3.836277961730957],"type":"VEC3","bufferView":0,"byteOffset":191604},{"name":"Ruedas_Ad_Círculo.004-Mesh_normals","componentType":5126,"count":2624,"min":[-1,-0.9807999730110168,-0.9807999730110168],"max":[1,0.9807999730110168,0.9807999730110168],"type":"VEC3","bufferView":0,"byteOffset":498612},{"name":"Ruedas_Ad_Círculo.004-Mesh_0_indices","componentType":5123,"count":4224,"min":[0],"max":[2623],"type":"SCALAR","bufferView":1,"byteOffset":60948},{"name":"Rin_1_Ad_Plano.017-Mesh_positions","componentType":5126,"count":4094,"min":[-1.9168200492858887,-1.163125991821289,2.758699893951416],"max":[1.9168200492858887,-0.25742900371551514,3.6617980003356934],"type":"VEC3","bufferView":0,"byteOffset":223092},{"name":"Rin_1_Ad_Plano.017-Mesh_normals","componentType":5126,"count":4094,"min":[-1,-0.998199999332428,-1],"max":[1,0.9952999949455261,1],"type":"VEC3","bufferView":0,"byteOffset":530100},{"name":"Rin_1_Ad_Plano.017-Mesh_0_indices","componentType":5123,"count":7320,"min":[0],"max":[4093],"type":"SCALAR","bufferView":1,"byteOffset":69396},{"name":"Rin_2_Ad_Círculo.003-Mesh_positions","componentType":5126,"count":578,"min":[-1.9125909805297852,-0.9476609826087952,2.9723639488220215],"max":[1.9125900268554688,-0.47189000248908997,3.448133945465088],"type":"VEC3","bufferView":0,"byteOffset":272220},{"name":"Rin_2_Ad_Círculo.003-Mesh_normals","componentType":5126,"count":578,"min":[-1,-0.9807999730110168,-0.9807999730110168],"max":[1,0.9807999730110168,0.9807999730110168],"type":"VEC3","bufferView":0,"byteOffset":579228},{"name":"Rin_2_Ad_Círculo.003-Mesh_0_indices","componentType":5123,"count":1248,"min":[0],"max":[577],"type":"SCALAR","bufferView":1,"byteOffset":84036},{"name":"Marco_Parabrisad_Tr_Plano.016-Mesh_positions","componentType":5126,"count":72,"min":[-1.2304730415344238,0.7054809927940369,-3.0257630348205566],"max":[1.2304730415344238,1.1554720401763916,-2.0676050186157227],"type":"VEC3","bufferView":0,"byteOffset":279156},{"name":"Marco_Parabrisad_Tr_Plano.016-Mesh_normals","componentType":5126,"count":72,"min":[-0.2312999963760376,0.8998000025749207,-0.41819998621940613],"max":[0.2312999963760376,0.9333999752998352,-0.2994000017642975],"type":"VEC3","bufferView":0,"byteOffset":586164},{"name":"Marco_Parabrisad_Tr_Plano.016-Mesh_0_indices","componentType":5123,"count":108,"min":[0],"max":[71],"type":"SCALAR","bufferView":1,"byteOffset":86532},{"name":"Parabrisas_Tr_Plano.015-Mesh_positions","componentType":5126,"count":72,"min":[-1.208678960800171,0.7173979878425598,-3.0003879070281982],"max":[1.208678960800171,1.1435550451278687,-2.092979907989502],"type":"VEC3","bufferView":0,"byteOffset":280020},{"name":"Parabrisas_Tr_Plano.015-Mesh_normals","componentType":5126,"count":72,"min":[-0.2883000075817108,0.9035999774932861,-0.40860000252723694],"max":[0.2883000075817108,0.9251999855041504,-0.2971000075340271],"type":"VEC3","bufferView":0,"byteOffset":587028},{"name":"Parabrisas_Tr_Plano.015-Mesh_0_indices","componentType":5123,"count":108,"min":[0],"max":[71],"type":"SCALAR","bufferView":1,"byteOffset":86748},{"name":"Ventana_1_Plano.013-Mesh_positions","componentType":5126,"count":120,"min":[-1.6132639646530151,0.3654710054397583,-1.1690160036087036],"max":[1.6132639646530151,1.2042460441589355,1.4068900346755981],"type":"VEC3","bufferView":0,"byteOffset":280884},{"name":"Ventana_1_Plano.013-Mesh_normals","componentType":5126,"count":120,"min":[-0.9943000078201294,0.1062999963760376,-0.022199999541044235],"max":[0.9943000078201294,0.42989999055862427,0.07639999687671661],"type":"VEC3","bufferView":0,"byteOffset":587892},{"name":"Ventana_1_Plano.013-Mesh_0_indices","componentType":5123,"count":180,"min":[0],"max":[119],"type":"SCALAR","bufferView":1,"byteOffset":86964},{"name":"Marco_Ventana_2_Plano.012-Mesh_positions","componentType":5126,"count":54,"min":[-1.621567964553833,0.39522698521614075,-1.8360639810562134],"max":[1.621567964553833,1.0868459939956665,-0.947284996509552],"type":"VEC3","bufferView":0,"byteOffset":282324},{"name":"Marco_Ventana_2_Plano.012-Mesh_normals","componentType":5126,"count":54,"min":[-0.9994000196456909,0.013299999758601189,-0.31139999628067017],"max":[0.9994000196456909,0.5297999978065491,0.0478999987244606],"type":"VEC3","bufferView":0,"byteOffset":589332},{"name":"Marco_Ventana_2_Plano.012-Mesh_0_indices","componentType":5123,"count":78,"min":[0],"max":[53],"type":"SCALAR","bufferView":1,"byteOffset":87324},{"name":"Ventana_2_Plano.010-Mesh_positions","componentType":5126,"count":8,"min":[-1.61183500289917,0.4287540018558502,-1.774901032447815],"max":[1.61183500289917,1.0177390575408936,-0.9937199950218201],"type":"VEC3","bufferView":0,"byteOffset":282972},{"name":"Ventana_2_Plano.010-Mesh_normals","componentType":5126,"count":8,"min":[-0.9358000159263611,0.3474999964237213,0.05889999866485596],"max":[0.9358000159263611,0.3474999964237213,0.05889999866485596],"type":"VEC3","bufferView":0,"byteOffset":589980},{"name":"Ventana_2_Plano.010-Mesh_0_indices","componentType":5123,"count":12,"min":[0],"max":[7],"type":"SCALAR","bufferView":1,"byteOffset":87480},{"name":"Pueratas_Plano.008-Mesh_positions","componentType":5126,"count":332,"min":[-1.9193259477615356,-0.7502909898757935,-0.947284996509552],"max":[1.9193259477615356,0.49543699622154236,1.6167869567871094],"type":"VEC3","bufferView":0,"byteOffset":283068},{"name":"Pueratas_Plano.008-Mesh_normals","componentType":5126,"count":332,"min":[-0.9986000061035156,-0.6444000005722046,-0.03629999980330467],"max":[0.9986000061035156,0.8228999972343445,0.04399999976158142],"type":"VEC3","bufferView":0,"byteOffset":590076},{"name":"Pueratas_Plano.008-Mesh_0_indices","componentType":5123,"count":504,"min":[0],"max":[331],"type":"SCALAR","bufferView":1,"byteOffset":87504},{"name":"Marco_Parabrisad_Ad_Plano.006-Mesh_positions","componentType":5126,"count":72,"min":[-1.5591349601745605,0.47985801100730896,0.7524290084838867],"max":[1.5591349601745605,1.301090955734253,1.7002270221710205],"type":"VEC3","bufferView":0,"byteOffset":287052},{"name":"Marco_Parabrisad_Ad_Plano.006-Mesh_normals","componentType":5126,"count":72,"min":[-0.5077000260353088,0.4715999960899353,0.4634000062942505],"max":[0.5077000260353088,0.7263000011444092,0.8805999755859375],"type":"VEC3","bufferView":0,"byteOffset":594060},{"name":"Marco_Parabrisad_Ad_Plano.006-Mesh_0_indices","componentType":5123,"count":108,"min":[0],"max":[71],"type":"SCALAR","bufferView":1,"byteOffset":88512},{"name":"Parabrisas_Ad_Plano.005-Mesh_positions","componentType":5126,"count":72,"min":[-1.5371849536895752,0.4922739863395691,0.7655869722366333],"max":[1.5371849536895752,1.2818210124969482,1.687067985534668],"type":"VEC3","bufferView":0,"byteOffset":287916},{"name":"Parabrisas_Ad_Plano.005-Mesh_normals","componentType":5126,"count":72,"min":[-0.30489999055862427,0.694100022315979,0.6420999765396118],"max":[0.30489999055862427,0.7124000191688538,0.7069000005722046],"type":"VEC3","bufferView":0,"byteOffset":594924},{"name":"Parabrisas_Ad_Plano.005-Mesh_0_indices","componentType":5123,"count":108,"min":[0],"max":[71],"type":"SCALAR","bufferView":1,"byteOffset":88728},{"name":"Faro_Protector_Círculo.002-Mesh_positions","componentType":5126,"count":416,"min":[-1.6695189476013184,-0.42391499876976013,4.519142150878906],"max":[1.6695189476013184,0.06963299959897995,4.694043159484863],"type":"VEC3","bufferView":0,"byteOffset":288780},{"name":"Faro_Protector_Círculo.002-Mesh_normals","componentType":5126,"count":416,"min":[-0.9932000041007996,-0.9944999814033508,0.039900001138448715],"max":[0.9932000041007996,0.9916999936103821,0.9997000098228455],"type":"VEC3","bufferView":0,"byteOffset":595788},{"name":"Faro_Protector_Círculo.002-Mesh_0_indices","componentType":5123,"count":624,"min":[0],"max":[415],"type":"SCALAR","bufferView":1,"byteOffset":88944},{"name":"Faro_Círculo-Mesh_positions","componentType":5126,"count":751,"min":[-1.6259640455245972,-0.37025099992752075,4.5470709800720215],"max":[1.6259640455245972,0.026078000664711,4.694043159484863],"type":"VEC3","bufferView":0,"byteOffset":293772},{"name":"Faro_Círculo-Mesh_normals","componentType":5126,"count":751,"min":[-0.9807999730110168,-0.9807999730110168,0],"max":[0.9807999730110168,0.9807999730110168,1],"type":"VEC3","bufferView":0,"byteOffset":600780},{"name":"Faro_Círculo-Mesh_0_indices","componentType":5123,"count":768,"min":[0],"max":[447],"type":"SCALAR","bufferView":1,"byteOffset":90192},{"name":"Faro_Círculo-Mesh_1_indices","componentType":5123,"count":480,"min":[448],"max":[750],"type":"SCALAR","bufferView":1,"byteOffset":91728},{"name":"Faro_2_Círculo.001-Mesh_positions","componentType":5126,"count":352,"min":[-1.6049619913101196,-0.349249005317688,4.694042205810547],"max":[1.6049619913101196,0.0050760000012815,4.708124160766602],"type":"VEC3","bufferView":0,"byteOffset":302784},{"name":"Faro_2_Círculo.001-Mesh_normals","componentType":5126,"count":352,"min":[-0.10769999772310257,-0.10769999772310257,0.9939000010490417],"max":[0.10769999772310257,0.10769999772310257,0.9998000264167786],"type":"VEC3","bufferView":0,"byteOffset":609792},{"name":"Faro_2_Círculo.001-Mesh_0_indices","componentType":5123,"count":480,"min":[0],"max":[351],"type":"SCALAR","bufferView":1,"byteOffset":92688}],"asset":{"generator":"obj2gltf","version":"2.0"},"buffers":[{"name":"Chevrolet_Camaro_SS_Low","byteLength":707664,"uri":"data:application/octet-stream;base64,"}],"bufferViews":[{"name":"bufferView_0","buffer":0,"byteLength":614016,"byteOffset":0,"byteStride":12,"target":34962},{"name":"bufferView_1","buffer":0,"byteLength":93648,"byteOffset":614016,"target":34963}],"materials":[{"name":"Material.013","pbrMetallicRoughness":{"baseColorFactor":[0.64,0.64,0.64,1],"metallicFactor":0,"roughnessFactor":0.903921569},"emissiveFactor":[0,0,0],"alphaMode":"OPAQUE","doubleSided":false},{"name":"None","pbrMetallicRoughness":{"baseColorFactor":[0.8,0.8,0.8,1],"metallicFactor":0,"roughnessFactor":1},"emissiveFactor":[0,0,0],"alphaMode":"OPAQUE","doubleSided":false},{"name":"Material","pbrMetallicRoughness":{"baseColorFactor":[0.64,0.132781,0.111726,1],"metallicFactor":0,"roughnessFactor":0.903921569},"emissiveFactor":[0,0,0],"alphaMode":"OPAQUE","doubleSided":false},{"name":"Material.006","pbrMetallicRoughness":{"baseColorFactor":[0.64,0.64,0.64,1],"metallicFactor":0,"roughnessFactor":0.903921569},"emissiveFactor":[0,0,0],"alphaMode":"OPAQUE","doubleSided":false},{"name":"Material.014","pbrMetallicRoughness":{"baseColorFactor":[0,0,0,1],"metallicFactor":0,"roughnessFactor":0.903921569},"emissiveFactor":[0,0,0],"alphaMode":"OPAQUE","doubleSided":false},{"name":"Material.012","pbrMetallicRoughness":{"baseColorFactor":[0.64,0.195663,0.195663,1],"metallicFactor":0,"roughnessFactor":0.903921569},"emissiveFactor":[0,0,0],"alphaMode":"OPAQUE","doubleSided":false},{"name":"Material.011","pbrMetallicRoughness":{"baseColorFactor":[0.381568,0.381568,0.381568,1],"metallicFactor":0,"roughnessFactor":0.903921569},"emissiveFactor":[0,0,0],"alphaMode":"OPAQUE","doubleSided":false},{"name":"Material.010","pbrMetallicRoughness":{"baseColorFactor":[0.64,0.64,0.64,1],"metallicFactor":0,"roughnessFactor":0.903921569},"emissiveFactor":[0,0,0],"alphaMode":"OPAQUE","doubleSided":false},{"name":"Material.009","pbrMetallicRoughness":{"baseColorFactor":[0.64,0.64,0.64,1],"metallicFactor":0,"roughnessFactor":0.903921569},"emissiveFactor":[0,0,0],"alphaMode":"OPAQUE","doubleSided":false},{"name":"Material.008","pbrMetallicRoughness":{"baseColorFactor":[0.64,0.64,0.64,1],"metallicFactor":0,"roughnessFactor":0.903921569},"emissiveFactor":[0,0,0],"alphaMode":"OPAQUE","doubleSided":false},{"name":"Material.007","pbrMetallicRoughness":{"baseColorFactor":[0.064008,0.064008,0.064008,1],"metallicFactor":0,"roughnessFactor":0.903921569},"emissiveFactor":[0,0,0],"alphaMode":"OPAQUE","doubleSided":false},{"name":"Material.002","pbrMetallicRoughness":{"baseColorFactor":[0.64,0.64,0.64,1],"metallicFactor":0,"roughnessFactor":0.903921569},"emissiveFactor":[0,0,0],"alphaMode":"OPAQUE","doubleSided":false},{"name":"Material.001","pbrMetallicRoughness":{"baseColorFactor":[0.64,0.64,0.64,1],"metallicFactor":0,"roughnessFactor":0.903921569},"emissiveFactor":[0,0,0],"alphaMode":"OPAQUE","doubleSided":false},{"name":"Material.004","pbrMetallicRoughness":{"baseColorFactor":[0.328743,0.328743,0.328743,1],"metallicFactor":0,"roughnessFactor":0.903921569},"emissiveFactor":[0,0,0],"alphaMode":"OPAQUE","doubleSided":false},{"name":"Material.005","pbrMetallicRoughness":{"baseColorFactor":[0.64,0.64,0.64,1],"metallicFactor":0,"roughnessFactor":0.903921569},"emissiveFactor":[0,0,0],"alphaMode":"OPAQUE","doubleSided":false},{"name":"Material.003","pbrMetallicRoughness":{"baseColorFactor":[0.64,0.64,0.64,1],"metallicFactor":0,"roughnessFactor":0.903921569},"emissiveFactor":[0,0,0],"alphaMode":"OPAQUE","doubleSided":false}],"meshes":[{"name":"Logo_Círculo.007-Mesh","primitives":[{"attributes":{"POSITION":0,"NORMAL":1},"indices":2,"material":0,"mode":4}]},{"name":"Plano.002_Plano.019-Mesh","primitives":[{"attributes":{"POSITION":3,"NORMAL":4},"indices":5,"material":1,"mode":4}]},{"name":"Carroceria_2_Plano.003-Mesh","primitives":[{"attributes":{"POSITION":6,"NORMAL":7},"indices":8,"material":2,"mode":4}]},{"name":"Rejilla_Plano.002-Mesh","primitives":[{"attributes":{"POSITION":9,"NORMAL":10},"indices":11,"material":3,"mode":4}]},{"name":"Carroceria_Plano-Mesh","primitives":[{"attributes":{"POSITION":12,"NORMAL":13},"indices":14,"material":2,"mode":4},{"attributes":{"POSITION":12,"NORMAL":13},"indices":15,"material":4,"mode":4}]},{"name":"Cubo-Mesh","primitives":[{"attributes":{"POSITION":16,"NORMAL":17},"indices":18,"material":1,"mode":4}]},{"name":"Luz_Tr_Plano.021-Mesh","primitives":[{"attributes":{"POSITION":19,"NORMAL":20},"indices":21,"material":5,"mode":4},{"attributes":{"POSITION":19,"NORMAL":20},"indices":22,"material":6,"mode":4}]},{"name":"Luz_Ad_Plano.020-Mesh","primitives":[{"attributes":{"POSITION":23,"NORMAL":24},"indices":25,"material":6,"mode":4},{"attributes":{"POSITION":23,"NORMAL":24},"indices":26,"material":7,"mode":4}]},{"name":"Rin_2_Tr_Círculo.006-Mesh","primitives":[{"attributes":{"POSITION":27,"NORMAL":28},"indices":29,"material":8,"mode":4}]},{"name":"Rin_1_Tr_Plano.018-Mesh","primitives":[{"attributes":{"POSITION":30,"NORMAL":31},"indices":32,"material":9,"mode":4}]},{"name":"Ruedas_Tr_Círculo.005-Mesh","primitives":[{"attributes":{"POSITION":33,"NORMAL":34},"indices":35,"material":10,"mode":4}]},{"name":"Ruedas_Ad_Círculo.004-Mesh","primitives":[{"attributes":{"POSITION":36,"NORMAL":37},"indices":38,"material":10,"mode":4}]},{"name":"Rin_1_Ad_Plano.017-Mesh","primitives":[{"attributes":{"POSITION":39,"NORMAL":40},"indices":41,"material":9,"mode":4}]},{"name":"Rin_2_Ad_Círculo.003-Mesh","primitives":[{"attributes":{"POSITION":42,"NORMAL":43},"indices":44,"material":8,"mode":4}]},{"name":"Marco_Parabrisad_Tr_Plano.016-Mesh","primitives":[{"attributes":{"POSITION":45,"NORMAL":46},"indices":47,"material":11,"mode":4}]},{"name":"Parabrisas_Tr_Plano.015-Mesh","primitives":[{"attributes":{"POSITION":48,"NORMAL":49},"indices":50,"material":12,"mode":4}]},{"name":"Ventana_1_Plano.013-Mesh","primitives":[{"attributes":{"POSITION":51,"NORMAL":52},"indices":53,"material":12,"mode":4}]},{"name":"Marco_Ventana_2_Plano.012-Mesh","primitives":[{"attributes":{"POSITION":54,"NORMAL":55},"indices":56,"material":11,"mode":4}]},{"name":"Ventana_2_Plano.010-Mesh","primitives":[{"attributes":{"POSITION":57,"NORMAL":58},"indices":59,"material":12,"mode":4}]},{"name":"Pueratas_Plano.008-Mesh","primitives":[{"attributes":{"POSITION":60,"NORMAL":61},"indices":62,"material":2,"mode":4}]},{"name":"Marco_Parabrisad_Ad_Plano.006-Mesh","primitives":[{"attributes":{"POSITION":63,"NORMAL":64},"indices":65,"material":11,"mode":4}]},{"name":"Parabrisas_Ad_Plano.005-Mesh","primitives":[{"attributes":{"POSITION":66,"NORMAL":67},"indices":68,"material":12,"mode":4}]},{"name":"Faro_Protector_Círculo.002-Mesh","primitives":[{"attributes":{"POSITION":69,"NORMAL":70},"indices":71,"material":3,"mode":4}]},{"name":"Faro_Círculo-Mesh","primitives":[{"attributes":{"POSITION":72,"NORMAL":73},"indices":74,"material":13,"mode":4},{"attributes":{"POSITION":72,"NORMAL":73},"indices":75,"material":14,"mode":4}]},{"name":"Faro_2_Círculo.001-Mesh","primitives":[{"attributes":{"POSITION":76,"NORMAL":77},"indices":78,"material":15,"mode":4}]}],"nodes":[{"name":"Logo_Círculo.007","mesh":0},{"name":"Plano.002_Plano.019","mesh":1},{"name":"Carroceria_2_Plano.003","mesh":2},{"name":"Rejilla_Plano.002","mesh":3},{"name":"Carroceria_Plano","mesh":4},{"name":"Cubo","mesh":5},{"name":"Luz_Tr_Plano.021","mesh":6},{"name":"Luz_Ad_Plano.020","mesh":7},{"name":"Rin_2_Tr_Círculo.006","mesh":8},{"name":"Rin_1_Tr_Plano.018","mesh":9},{"name":"Ruedas_Tr_Círculo.005","mesh":10},{"name":"Ruedas_Ad_Círculo.004","mesh":11},{"name":"Rin_1_Ad_Plano.017","mesh":12},{"name":"Rin_2_Ad_Círculo.003","mesh":13},{"name":"Marco_Parabrisad_Tr_Plano.016","mesh":14},{"name":"Parabrisas_Tr_Plano.015","mesh":15},{"name":"Ventana_1_Plano.013","mesh":16},{"name":"Marco_Ventana_2_Plano.012","mesh":17},{"name":"Ventana_2_Plano.010","mesh":18},{"name":"Pueratas_Plano.008","mesh":19},{"name":"Marco_Parabrisad_Ad_Plano.006","mesh":20},{"name":"Parabrisas_Ad_Plano.005","mesh":21},{"name":"Faro_Protector_Círculo.002","mesh":22},{"name":"Faro_Círculo","mesh":23},{"name":"Faro_2_Círculo.001","mesh":24}],"scene":0,"scenes":[{"nodes":[0,1,2,3,4,5,6,7,8,9,10,11,12,13,14,15,16,17,18,19,20,21,22,23,24]}]}
